<?xml version="1.0" encoding="UTF-8" standalone="no"?>
<!-- Created with Inkscape (http://www.inkscape.org/) -->

<svg
   inkscape:export-ydpi="96"
   inkscape:export-xdpi="96"
   inkscape:export-filename="logo_variants_12-11-2024.png"
   sodipodi:docname="logo_12-11-2024.svg"
   inkscape:version="1.2.2 (b0a8486541, 2022-12-01)"
   id="svg1"
   version="1.1"
   viewBox="0 0 512 512"
   height="512"
   width="512"
   xml:space="preserve"
   xmlns:inkscape="http://www.inkscape.org/namespaces/inkscape"
   xmlns:sodipodi="http://sodipodi.sourceforge.net/DTD/sodipodi-0.dtd"
   xmlns="http://www.w3.org/2000/svg"
   xmlns:svg="http://www.w3.org/2000/svg"><sodipodi:namedview
     id="namedview1"
     pagecolor="#ffffff"
     bordercolor="#000000"
     borderopacity="0.25"
     inkscape:showpageshadow="2"
     inkscape:pageopacity="0.0"
     inkscape:pagecheckerboard="0"
     inkscape:deskcolor="#d1d1d1"
     inkscape:document-units="px"
     inkscape:zoom="1"
     inkscape:cx="935"
     inkscape:cy="352.5"
     inkscape:window-width="1854"
     inkscape:window-height="1011"
     inkscape:window-x="0"
     inkscape:window-y="0"
     inkscape:window-maximized="1"
     inkscape:current-layer="layer2"
     showgrid="false" /><defs
     id="defs1"><inkscape:path-effect
       effect="lattice2"
       gridpoint0="1396.2232,173.12828"
       gridpoint1="1546.2096,115.64247"
       gridpoint2="1396.2232,440.52771"
       gridpoint3="1552.7601,387.78745"
       gridpoint4="1435.3574,206.39627"
       gridpoint5="1525.2676,201.03605"
       gridpoint6="1435.3574,440.52771"
       gridpoint7="1513.6259,440.52771"
       gridpoint8x9="1474.4916,206.39627"
       gridpoint10x11="1474.4916,440.52771"
       gridpoint12="1396.2232,264.92913"
       gridpoint13="1552.7601,264.92913"
       gridpoint14="1396.2232,381.99485"
       gridpoint15="1552.7601,381.99485"
       gridpoint16="1435.3574,264.92913"
       gridpoint17="1513.6259,264.92913"
       gridpoint18="1435.3574,381.99485"
       gridpoint19="1513.6259,381.99485"
       gridpoint20x21="1474.4916,264.92913"
       gridpoint22x23="1474.4916,381.99485"
       gridpoint24x26="1396.2232,323.46199"
       gridpoint25x27="1552.7601,323.46199"
       gridpoint28x30="1435.3574,323.46199"
       gridpoint29x31="1513.6259,323.46199"
       gridpoint32x33x34x35="1474.4916,323.46199"
       id="path-effect6-1-5"
       is_visible="true"
       lpeversion="1"
       horizontal_mirror="false"
       vertical_mirror="false"
       perimetral="false"
       live_update="true" /><inkscape:path-effect
       effect="lattice2"
       gridpoint0="-1555.4078,262.35572"
       gridpoint1="-1525.2677,252.07779"
       gridpoint2="-1555.4078,299.86858"
       gridpoint3="-1525.2677,287.1555"
       gridpoint4="-1547.8728,252.07779"
       gridpoint5="-1532.8027,252.07779"
       gridpoint6="-1547.8728,287.1555"
       gridpoint7="-1532.8027,287.1555"
       gridpoint8x9="-1540.3378,252.07779"
       gridpoint10x11="-1540.3378,287.1555"
       gridpoint12="-1555.4078,260.84722"
       gridpoint13="-1525.2677,260.84722"
       gridpoint14="-1555.4078,278.38607"
       gridpoint15="-1525.2677,278.38607"
       gridpoint16="-1547.8728,260.84722"
       gridpoint17="-1532.8027,260.84722"
       gridpoint18="-1547.8728,278.38607"
       gridpoint19="-1532.8027,278.38607"
       gridpoint20x21="-1540.3378,260.84722"
       gridpoint22x23="-1540.3378,278.38607"
       gridpoint24x26="-1555.4078,269.61665"
       gridpoint25x27="-1525.2677,269.61665"
       gridpoint28x30="-1547.8728,269.61665"
       gridpoint29x31="-1532.8027,269.61665"
       gridpoint32x33x34x35="-1540.3378,269.61665"
       id="path-effect13-8-2"
       is_visible="true"
       lpeversion="1"
       horizontal_mirror="false"
       vertical_mirror="false"
       perimetral="false"
       live_update="true" /></defs><g
     inkscape:label="Слой 1"
     inkscape:groupmode="layer"
     id="layer1"
     transform="translate(1050.5327)"><g
       inkscape:groupmode="layer"
       id="layer2"
       inkscape:label="Map"
       transform="matrix(0.995892,0,0,0.995892,-1212.43,-66.1332)"><g
         id="g3-7-5"
         style="display:inline;stroke-width:1.00011;stroke-dasharray:none"
         transform="translate(-983.86044,-9.9977284)"><path
           style="fill:#3a8ce4;fill-opacity:1;stroke:none;stroke-width:1.00011;stroke-dasharray:none"
           d="M 1166.5177,151.80038 V 549.1307 l 95.9132,-33.33691 c 23.6916,-126.45518 25.3,-258.53264 0,-397.4609 z"
           id="path1-9-4"
           sodipodi:nodetypes="ccccc" /><path
           style="fill:#377ab4;fill-opacity:1;stroke:none;stroke-width:1.00011;stroke-dasharray:none"
           d="m 1358.3441,151.80032 c 18.3913,164.61429 5.5362,274.57105 0,397.33032 l -95.9132,-33.33689 V 118.33289 Z"
           id="path1-6-2-7"
           sodipodi:nodetypes="ccccc" /><path
           style="fill:#3a8ce4;fill-opacity:1;stroke:none;stroke-width:1.00011;stroke-dasharray:none"
           d="m 1358.3441,151.80032 v 397.33031 l 95.9134,-33.33691 c 38.308,-119.22789 39.4025,-251.33603 0,-397.4609 z"
           id="path1-60-0-4"
           sodipodi:nodetypes="ccccc" /><path
           style="fill:#3a8ce4;fill-opacity:1;stroke:none;stroke-width:1.00011;stroke-dasharray:none"
           d="m 1550.1707,151.80025 c -30.5651,135.95633 -16.0323,266.72948 0,397.33031 l 95.9134,-33.33689 v -397.4609 z"
           id="path1-60-8-2-4"
           sodipodi:nodetypes="ccccc" /><path
           style="fill:#377ab4;fill-opacity:1;stroke:none;stroke-width:1.00011;stroke-dasharray:none"
           d="m 1550.1707,151.80025 v 397.33033 l -95.9132,-33.33689 V 118.33282 Z"
           id="path1-6-6-3-3" /></g><path
         id="rect3-1-7-0"
         style="display:inline;fill:#ffffff;stroke-width:0"
         d="m 1396.2232,419.35854 c 24.4794,-8.32858 73.5796,-25.11577 98.059,-33.44434 32.6369,-11.11974 57.9593,-19.67161 57.9593,-19.67161 0.1829,7.19135 0.5186,21.54486 0.5186,21.54486 -52.1795,17.59201 -156.5369,52.74026 -156.5369,52.74026 z m 111.7261,-160.74688 c -11.7863,4.24454 -23.8191,8.61691 -38.9706,14.15012 -13.3414,4.87216 -24.0767,8.80251 -24.0767,8.80251 0.1731,-42.5062 0.4883,-127.51574 0.4883,-127.51574 11.6027,-4.52442 26.9922,-10.54076 40.7429,-15.86974 13.2293,-5.12691 22.8522,-8.79573 22.8522,-8.79573 -0.8406,104.84947 -0.1955,24.37911 -1.0361,129.22858 z m -32.4452,111.03514 c -7.2754,-6.96791 -15.0664,-14.32133 -24.0851,-22.65092 -8.0965,-7.47779 -14.6229,-13.38559 -14.6229,-13.38559 -9.0831,-8.25371 -15.2938,-13.82517 -24.377,-22.07888 -8.0739,-7.34638 -14.3727,-13.23807 -14.3727,-13.23807 14.6235,-5.27745 30.1172,-10.94092 48.7741,-17.77149 16.5256,-6.05026 29.6243,-10.83634 29.6243,-10.83634 14.3281,-5.21996 31.0658,-11.2989 47.0235,-16.96525 14.8516,-5.27362 25.2731,-8.83295 25.2731,-8.83295 -5.7622,11.48614 -12.6095,24.20503 -20.8363,38.66264 -7.4427,13.07954 -13.7494,23.63123 -13.7494,23.63123 -12.1512,20.50498 -25.9668,42.94838 -38.6516,63.46562 z"
         inkscape:path-effect="#path-effect6-1-5"
         inkscape:original-d="m 1396.2232,421.99226 h 156.5369 v 18.53545 h -156.5369 z m 110.5664,-105.12765 h -62.434 V 206.39627 h 62.434 z m -31.7024,85.59062 -38.5016,-42.94476 -38.5014,-42.94477 h 77.0029 77.003 l -38.5016,42.94477 z"
         transform="translate(-1054.8706,38.506587)" /><rect
         style="fill:#357ab6;fill-opacity:1;stroke-width:0"
         id="rect8-5-7"
         width="32.656342"
         height="80.810417"
         x="-503.05328"
         y="-341.26752"
         transform="scale(-1)" /><path
         style="fill:#357ab6;fill-opacity:1;stroke-width:0"
         id="rect11-9-8"
         width="30.140158"
         height="35.077713"
         x="-1555.4078"
         y="252.07779"
         transform="matrix(-1,0,0,1,-1054.8706,38.506587)"
         sodipodi:type="rect"
         inkscape:path-effect="#path-effect13-8-2"
         d="m -1555.4078,262.35572 c 10.0588,-3.4194 30.1401,-10.27793 30.1401,-10.27793 0.01,11.701 0,35.07771 0,35.07771 -10.0389,4.24443 -30.1401,12.71308 -30.1401,12.71308 0,-12.50429 0,-25.00857 0,-37.51286 z" /><path
         id="path7-2-6"
         inkscape:transform-center-x="-1.842486e-05"
         inkscape:transform-center-y="5.0027789"
         d="m 500.52943,319.61859 c -5.31,-5.117 -15.57,-15.004 -15.57,-15.004 -4.97,-4.781 -14.57,-14.03 -14.57,-14.03 l -1.544,17.8011 1.544,17.2759 c 4.75,-0.952 14.57,-2.92 14.57,-2.92 8.22,-1.648 7.09,-1.422 15.57,-3.123 z"
         style="fill:#e8e8e8;fill-opacity:1;stroke:none;stroke-width:0"
         sodipodi:nodetypes="ccccccc" /><path
         id="rect13-3-2-8"
         d="m 331.30906,429.62405 c 14.4069,4.56658 43.1746,13.64884 43.1746,13.64884 0.013,16.63798 0,49.85381 0,49.85381 -14.382,-5.07412 -43.1746,-15.26985 -43.1746,-15.26985 1e-4,-16.07761 1e-4,-32.1552 0,-48.2328 z"
         style="display:inline;fill:#357ab6;fill-opacity:1;stroke-width:0" /><path
         id="rect13-3-7-89-8"
         d="m 470.39703,392.97972 c 14.4069,4.56658 43.1746,13.64884 43.1746,13.64884 0.013,16.63798 0,49.85381 0,49.85381 -14.382,-5.07412 -43.1746,-15.26985 -43.1746,-15.26985 1e-4,-16.07761 1e-4,-32.1552 0,-48.2328 z"
         style="display:inline;fill:#357ab6;fill-opacity:1;stroke-width:0" /><path
         id="path13-73-4"
         style="fill:#e8e8e8;fill-opacity:1;stroke-width:0"
         inkscape:transform-center-x="0.0001893748"
         inkscape:transform-center-y="5.743016"
         d="m 374.47946,365.36959 -34.6,-31.563 34.6,-8.389 z" /><path
         style="fill:#e8e8e8;fill-opacity:1;stroke-width:1.00136"
         d="m 374.48946,467.87279 v -21.30533 l -33.131,-11.09824 v 21.05291 z"
         id="path1205-61-3" /><path
         style="fill:#e8e8e8;fill-opacity:1;stroke-width:1.01668"
         d="m 503.52803,447.28786 v -21.96214 l -33.131,-11.44041 v 21.70196 z"
         id="path1205-6-29-1" /></g></g></svg>
